<svg xmlns="http://www.w3.org/2000/svg" viewBox="0 0 120 120" width="120" height="120" role="img" aria-label="Chatbot">
  <defs>
    <radialGradient id="goldGrad" cx="35%" cy="35%">
      <stop offset="0%" style="stop-color:#f4d89f;stop-opacity:1" />
      <stop offset="100%" style="stop-color:#d4af5f;stop-opacity:1" />
    </radialGradient>
  </defs>

  <!-- Golden circular background -->
  <circle cx="60" cy="60" r="58" fill="url(#goldGrad)"/>
  
  <!-- Subtle shadow/depth -->
  <circle cx="60" cy="60" r="58" fill="none" stroke="#a68840" stroke-width="1" opacity="0.3"/>
  
  <!-- Speech bubble outline/container -->
  <path d="M 35 40 Q 35 32 42 32 L 85 32 Q 92 32 92 40 L 92 75 Q 92 82 85 82 L 50 82 L 38 94 L 48 82 L 42 82 Q 35 82 35 75 Z" fill="none" stroke="#666666" stroke-width="2.5" stroke-linecap="round" stroke-linejoin="round"/>
  
  <!-- Speech bubble fill (light) -->
  <path d="M 35 40 Q 35 32 42 32 L 85 32 Q 92 32 92 40 L 92 75 Q 92 82 85 82 L 50 82 L 38 94 L 48 82 L 42 82 Q 35 82 35 75 Z" fill="#f9f9f9" opacity="0.8"/>
  
  <!-- Message dots inside bubble -->
  <circle cx="45" cy="58" r="3" fill="#666666"/>
  <circle cx="60" cy="58" r="3" fill="#666666"/>
  <circle cx="75" cy="58" r="3" fill="#666666"/>

</svg>
