<svg width="512" height="512" viewBox="0 0 512 512" xmlns="http://www.w3.org/2000/svg">
  <defs>
    <linearGradient id="brandGradient" x1="0" y1="0" x2="1" y2="1">
      <stop offset="0%" stop-color="#46f0d4"/>
      <stop offset="100%" stop-color="#2a7bff"/>
    </linearGradient>
    <clipPath id="brandMask">
      <circle cx="256" cy="256" r="220"/>
    </clipPath>
  </defs>
  <circle cx="256" cy="256" r="220" fill="url(#brandGradient)" opacity="0.08"/>
  <g clip-path="url(#brandMask)" stroke="url(#brandGradient)" stroke-width="28" fill="none" stroke-linecap="round">
    <path d="M-40 140c90 60 180 60 270 0s180-60 270 0"/>
    <path d="M-40 190c90 60 180 60 270 0s180-60 270 0"/>
    <path d="M-40 240c90 60 180 60 270 0s180-60 270 0"/>
    <path d="M-40 290c90 60 180 60 270 0s180-60 270 0"/>
    <path d="M-40 340c90 60 180 60 270 0s180-60 270 0"/>
    <path d="M-40 390c90 60 180 60 270 0s180-60 270 0"/>
  </g>
</svg>

