<svg width="80" height="80" viewBox="0 0 80 80" xmlns="http://www.w3.org/2000/svg">
  <defs>
    <linearGradient id="skin2" x1="0%" y1="0%" x2="100%" y2="100%">
      <stop offset="0%" style="stop-color:#D2B48C;stop-opacity:1" />
      <stop offset="100%" style="stop-color:#C19A6B;stop-opacity:1" />
    </linearGradient>
  </defs>
  <!-- Background circle -->
  <circle cx="40" cy="40" r="40" fill="#f0f4ff"/>
  
  <!-- Head -->
  <circle cx="40" cy="32" r="14" fill="url(#skin2)"/>
  
  <!-- Hair -->
  <path d="M 26 28 Q 26 15 40 15 Q 54 15 54 28 Q 54 32 52 34 L 28 34 Q 26 32 26 28" fill="#1a1a1a"/>
  
  <!-- Ears -->
  <ellipse cx="26" cy="32" rx="3.5" ry="5" fill="url(#skin2)"/>
  <ellipse cx="54" cy="32" rx="3.5" ry="5" fill="url(#skin2)"/>
  
  <!-- Eyes -->
  <circle cx="35" cy="30" r="2.5" fill="#2C3E50"/>
  <circle cx="45" cy="30" r="2.5" fill="#2C3E50"/>
  <circle cx="35.8" cy="29" r="0.8" fill="#fff"/>
  <circle cx="45.8" cy="29" r="0.8" fill="#fff"/>
  
  <!-- Eyebrows -->
  <path d="M 32 27 Q 35 25 38 27" stroke="#1a1a1a" stroke-width="1.2" fill="none" stroke-linecap="round"/>
  <path d="M 42 27 Q 45 25 48 27" stroke="#1a1a1a" stroke-width="1.2" fill="none" stroke-linecap="round"/>
  
  <!-- Nose -->
  <line x1="40" y1="32" x2="40" y2="37.5" stroke="#BF9D7F" stroke-width="1.5"/>
  <path d="M 38.5 37.5 Q 40 38 41.5 37.5" fill="none" stroke="#BF9D7F" stroke-width="1"/>
  
  <!-- Mouth -->
  <path d="M 34 41 Q 40 44 46 41" stroke="#C19A6B" stroke-width="2" fill="none" stroke-linecap="round"/>
  
  <!-- Neck -->
  <rect x="36" y="45" width="8" height="6" fill="url(#skin2)"/>
  
  <!-- Shoulders/Body - Professional shirt -->
  <path d="M 26 51 L 25 65 Q 25 70 32 70 L 48 70 Q 55 70 55 65 L 54 51" fill="#2C3E50"/>
  
  <!-- White shirt/collar -->
  <rect x="35" y="51" width="10" height="8" fill="#ffffff" rx="1"/>
  
  <!-- Tie -->
  <path d="M 38 51 L 40 60 L 42 51" fill="#E74C3C" stroke="#C0392B" stroke-width="0.5"/>
</svg>