<svg width="80" height="80" viewBox="0 0 80 80" xmlns="http://www.w3.org/2000/svg">
  <defs>
    <linearGradient id="skin4" x1="0%" y1="0%" x2="100%" y2="100%">
      <stop offset="0%" style="stop-color:#D2B48C;stop-opacity:1" />
      <stop offset="100%" style="stop-color:#C19A6B;stop-opacity:1" />
    </linearGradient>
  </defs>
  <!-- Background circle -->
  <circle cx="40" cy="40" r="40" fill="#f3e8ff"/>
  
  <!-- Head -->
  <circle cx="40" cy="32" r="14" fill="url(#skin4)"/>
  
  <!-- Hair (short, clean cut) -->
  <path d="M 26 28 Q 26 15 40 15 Q 54 15 54 28 Q 54 32 52 34 L 28 34 Q 26 32 26 28" fill="#3E2723"/>
  
  <!-- Hair texture lines -->
  <line x1="30" y1="20" x2="30" y2="26" stroke="#2C1810" stroke-width="0.8" opacity="0.5"/>
  <line x1="40" y1="16" x2="40" y2="24" stroke="#2C1810" stroke-width="0.8" opacity="0.5"/>
  <line x1="50" y1="20" x2="50" y2="26" stroke="#2C1810" stroke-width="0.8" opacity="0.5"/>
  
  <!-- Ears -->
  <ellipse cx="26" cy="32" rx="3.5" ry="5" fill="url(#skin4)"/>
  <ellipse cx="54" cy="32" rx="3.5" ry="5" fill="url(#skin4)"/>
  
  <!-- Eyes -->
  <circle cx="35" cy="31" r="2.5" fill="#1a1a1a"/>
  <circle cx="45" cy="31" r="2.5" fill="#1a1a1a"/>
  <circle cx="35.7" cy="30" r="1" fill="#fff"/>
  <circle cx="45.7" cy="30" r="1" fill="#fff"/>
  
  <!-- Eyebrows -->
  <path d="M 31.5 28 Q 35 26 38.5 28" stroke="#1a1a1a" stroke-width="1.3" fill="none" stroke-linecap="round"/>
  <path d="M 41.5 28 Q 45 26 48.5 28" stroke="#1a1a1a" stroke-width="1.3" fill="none" stroke-linecap="round"/>
  
  <!-- Nose -->
  <path d="M 40 32 L 40 38" stroke="#BF9D7F" stroke-width="1.5"/>
  <circle cx="38" cy="38" r="1.5" fill="#BF9D7F"/>
  <circle cx="42" cy="38" r="1.5" fill="#BF9D7F"/>
  
  <!-- Mouth -->
  <path d="M 33 41 Q 40 44 47 41" stroke="#9D8B76" stroke-width="2" fill="none" stroke-linecap="round"/>
  
  <!-- Neck -->
  <rect x="36" y="45" width="8" height="6" fill="url(#skin4)"/>
  
  <!-- Shoulders/Body - Green blazer -->
  <path d="M 26 51 L 24 65 Q 24 70 31 70 L 49 70 Q 56 70 56 65 L 54 51" fill="#27AE60"/>
  
  <!-- Shirt/collar -->
  <rect x="35" y="51" width="10" height="7" fill="#ECF0F1" rx="1"/>
  
  <!-- Badge/pocket detail -->
  <rect x="48" y="55" width="5" height="5" fill="#16A085" rx="1"/>
</svg>